<?xml version="1.0" standalone="no"?><!DOCTYPE svg PUBLIC "-//W3C//DTD SVG 1.1//EN" "http://www.w3.org/Graphics/SVG/1.1/DTD/svg11.dtd"><svg t="1624096782564" class="icon" viewBox="0 0 1024 1024" version="1.1" xmlns="http://www.w3.org/2000/svg" p-id="7967" width="200" height="200" xmlns:xlink="http://www.w3.org/1999/xlink"><defs><style type="text/css"></style></defs><path d="M784.4 955c-3.8 0-7.7-0.9-11.2-2.8L512.5 815.1 251.7 952.2c-8.1 4.3-17.9 3.5-25.3-1.8-7.4-5.4-11.1-14.5-9.5-23.5l49.8-290.4-211-205.6c-6.5-6.4-8.9-15.9-6.1-24.6 2.8-8.7 10.3-15 19.4-16.3l291.5-42.4L491 83.4c4-8.2 12.4-13.4 21.5-13.4S530 75.2 534 83.4l130.4 264.2L955.9 390c9 1.3 16.6 7.6 19.4 16.3 2.8 8.7 0.5 18.2-6.1 24.6L758.3 636.5l49.8 290.4c1.5 9-2.2 18.1-9.5 23.5-4.2 3-9.2 4.6-14.2 4.6zM124.1 430.5L309.3 611c5.7 5.5 8.2 13.5 6.9 21.2l-43.7 254.9 228.9-120.3c7-3.7 15.3-3.7 22.3 0l228.9 120.3-43.7-254.9c-1.3-7.8 1.2-15.7 6.9-21.2l185.1-180.5L645 393.3c-7.8-1.1-14.6-6-18.1-13.1L512.5 148.3 398.1 380.2c-3.5 7.1-10.3 12-18.1 13.1l-255.9 37.2z" fill="#3ad4ef" p-id="7968"></path></svg>