<?xml version="1.0" standalone="no"?><!DOCTYPE svg PUBLIC "-//W3C//DTD SVG 1.1//EN" "http://www.w3.org/Graphics/SVG/1.1/DTD/svg11.dtd"><svg t="1625384511979" class="icon" viewBox="0 0 1024 1024" version="1.1" xmlns="http://www.w3.org/2000/svg" p-id="17373" xmlns:xlink="http://www.w3.org/1999/xlink" width="200" height="200"><defs><style type="text/css"></style></defs><path d="M896 85.333333H128c-23.466667 0-42.666667 19.2-42.666667 42.666667v768c0 23.466667 19.2 42.666667 42.666667 42.666667h768c23.466667 0 42.666667-19.2 42.666667-42.666667V128c0-23.466667-19.2-42.666667-42.666667-42.666667z m-42.666667 768H170.666667V170.666667h682.666666v682.666666z" p-id="17374" fill="#707070"></path><path d="M288 554.666667h448c23.466667 0 42.666667-19.2 42.666667-42.666667s-19.2-42.666667-42.666667-42.666667h-448c-23.466667 0-42.666667 19.2-42.666667 42.666667s19.2 42.666667 42.666667 42.666667zM288 746.666667h256c23.466667 0 42.666667-19.2 42.666667-42.666667s-19.2-42.666667-42.666667-42.666667h-256c-23.466667 0-42.666667 19.2-42.666667 42.666667s19.2 42.666667 42.666667 42.666667zM288 362.666667h448c23.466667 0 42.666667-19.2 42.666667-42.666667s-19.2-42.666667-42.666667-42.666667h-448c-23.466667 0-42.666667 19.2-42.666667 42.666667s19.2 42.666667 42.666667 42.666667z" p-id="17375" fill="#707070"></path></svg>