<?xml version="1.0" standalone="no"?><!DOCTYPE svg PUBLIC "-//W3C//DTD SVG 1.1//EN" "http://www.w3.org/Graphics/SVG/1.1/DTD/svg11.dtd"><svg t="1625385047652" class="icon" viewBox="0 0 1024 1024" version="1.1" xmlns="http://www.w3.org/2000/svg" p-id="24506" xmlns:xlink="http://www.w3.org/1999/xlink" width="200" height="200"><defs><style type="text/css"></style></defs><path d="M972.5952 265.3696a89.53344 89.53344 0 0 0-69.888-33.3312H332.3904L325.12 171.008c-0.1536-1.1776-0.3072-2.3552-0.5632-3.4816-9.3184-48.9472-52.224-84.48-102.0416-84.48H100.352c-28.2624 0-51.2 22.9376-51.2 51.2s22.9376 51.2 51.2 51.2h122.2144c0.512 0 1.024 0.3072 1.28 0.7168l59.9552 503.4496c0.1536 1.1776 0.3072 2.3552 0.5632 3.4816 9.3184 48.9472 52.224 84.48 102.0416 84.48h427.3664c48.7424 0 91.4944-34.6112 101.5808-82.2784l75.3152-354.6624c5.632-26.624-0.9216-54.0672-18.0736-75.264z" fill="#8C7BFD" p-id="24507"></path><path d="M357.7856 950.1184c-73.6256 0-133.5296-59.904-133.5296-133.5296s59.904-133.5296 133.5296-133.5296 133.5296 59.904 133.5296 133.5296-59.904 133.5296-133.5296 133.5296z m0-164.7104c-17.2032 0-31.1296 13.9776-31.1296 31.1296s13.9776 31.1296 31.1296 31.1296 31.1296-13.9776 31.1296-31.1296-13.9776-31.1296-31.1296-31.1296zM846.3872 950.1184c-73.6256 0-133.5296-59.904-133.5296-133.5296s59.904-133.5296 133.5296-133.5296 133.5296 59.904 133.5296 133.5296-59.904 133.5296-133.5296 133.5296z m0-164.7104c-17.2032 0-31.1296 13.9776-31.1296 31.1296s13.9776 31.1296 31.1296 31.1296 31.1296-13.9776 31.1296-31.1296-13.9776-31.1296-31.1296-31.1296zM754.432 510.9248H483.84c-28.2624 0-51.2-22.9376-51.2-51.2s22.9376-51.2 51.2-51.2h270.592c28.2624 0 51.2 22.9376 51.2 51.2s-22.9376 51.2-51.2 51.2z" fill="#FFE37B" p-id="24508"></path></svg>