<?xml version="1.0" standalone="no"?><!DOCTYPE svg PUBLIC "-//W3C//DTD SVG 1.1//EN" "http://www.w3.org/Graphics/SVG/1.1/DTD/svg11.dtd"><svg t="1623465611157" class="icon" viewBox="0 0 1024 1024" version="1.1" xmlns="http://www.w3.org/2000/svg" p-id="13534" xmlns:xlink="http://www.w3.org/1999/xlink" width="200" height="200"><defs><style type="text/css"></style></defs><path d="M650.11 746.11C776.37 692.24 865.1 566.86 865.1 421.14c0-194.7-158.41-353.09-353.11-353.09S158.9 226.44 158.9 421.14c0 153.7 98.71 284.78 236.07 333.17-80.02 33.13-146.51 94.85-186.1 176.78l51.44 24.86c51.22-105.99 155.88-171.84 273.14-171.84s221.93 65.85 273.16 171.84l51.44-24.86c-43.15-89.26-118.23-154.54-207.94-184.98zM216.03 421.14c0-163.19 132.77-295.96 295.96-295.96 163.21 0 295.98 132.77 295.98 295.96 0 163.21-132.77 295.98-295.98 295.98-163.19 0-295.96-132.77-295.96-295.98z" p-id="13535"></path></svg>