<?xml version="1.0" standalone="no"?><!DOCTYPE svg PUBLIC "-//W3C//DTD SVG 1.1//EN" "http://www.w3.org/Graphics/SVG/1.1/DTD/svg11.dtd"><svg t="1623468286003" class="icon" viewBox="0 0 1024 1024" version="1.1" xmlns="http://www.w3.org/2000/svg" p-id="18751" xmlns:xlink="http://www.w3.org/1999/xlink" width="200" height="200"><defs><style type="text/css"></style></defs><path d="M824.46 277.74H305.84c-2.35 0-4.67 0.17-6.94 0.48L282 227.91c-3.94-11.71-14.4-19.39-25.98-20.35-2.13-0.48-4.35-0.74-6.63-0.74h-71.92c-16.57 0-30 13.43-30 30s13.43 30 30 30h54.31l22.15 65.92c0.19 1.98 0.57 3.95 1.16 5.86l94.6 308.75c0.82 7.94 3.44 15.34 7.43 21.82l29.82 88.73c4.72 14.05 18.84 22.29 33.01 20.09 1.52 0.24 3.08 0.36 4.67 0.36h8.06c-0.09 1.01-0.14 2.03-0.14 3.06 0 19.75 16.01 35.76 35.76 35.76 19.75 0 35.76-16.01 35.76-35.76 0-1.03-0.05-2.05-0.14-3.06h178.42c-0.09 1.01-0.14 2.03-0.14 3.06 0 19.75 16.01 35.76 35.76 35.76s35.76-16.01 35.76-35.76c0-1.52-0.11-3.01-0.29-4.48 12.11-3.86 20.89-15.2 20.89-28.59 0-16.57-13.43-30-30-30H436.95L428.77 694h395.69c28.71 0 52.07-23.36 52.07-52.07V329.81c0-28.71-23.35-52.07-52.07-52.07z m-7.93 356.28H408.34c-0.08-0.29-0.16-0.57-0.25-0.86l-90.52-295.42h498.96v296.28z" fill="#d81e06" p-id="18752"></path></svg>